<?xml version="1.0" standalone="no"?>
<!DOCTYPE svg PUBLIC "-//W3C//DTD SVG 20010904//EN"
 "http://www.w3.org/TR/2001/REC-SVG-20010904/DTD/svg10.dtd">
<svg version="1.0" xmlns="http://www.w3.org/2000/svg"
 width="920.000000pt" height="920.000000pt" viewBox="0 0 920.000000 920.000000"
 preserveAspectRatio="xMidYMid meet">
<metadata>
Created by potrace 1.11, written by Peter Selinger 2001-2013
</metadata>
<g transform="translate(0.000000,920.000000) scale(0.100000,-0.100000)"
fill="#000000" stroke="none">
<path d="M4457 8204 c-1 -1 -47 -5 -102 -8 -104 -6 -320 -31 -345 -40 -8 -3
-31 -7 -50 -10 -19 -2 -60 -10 -90 -16 -30 -6 -66 -14 -80 -16 -207 -40 -551
-164 -800 -288 -139 -69 -323 -174 -328 -188 -2 -4 -8 -8 -12 -8 -9 0 -153
-96 -210 -140 -179 -139 -254 -205 -400 -350 -149 -150 -344 -378 -372 -437
-6 -13 -15 -23 -20 -23 -4 0 -8 -6 -8 -14 0 -8 -4 -16 -9 -18 -9 -3 -101 -143
-137 -207 -10 -19 -33 -59 -51 -90 -210 -369 -368 -842 -423 -1261 -6 -47 -13
-96 -16 -110 -22 -124 -22 -614 1 -775 2 -16 7 -52 10 -80 8 -73 37 -243 55
-320 6 -27 13 -57 15 -65 23 -108 113 -393 126 -398 5 -2 7 -7 4 -12 -5 -9 98
-259 112 -269 4 -3 9 -13 11 -21 12 -56 183 -356 291 -508 36 -52 73 -103 81
-115 8 -12 23 -31 32 -42 9 -11 40 -49 69 -85 102 -125 311 -340 419 -430 81
-68 144 -120 155 -128 6 -4 28 -21 50 -38 145 -111 351 -237 553 -339 133 -66
357 -162 422 -179 14 -4 34 -11 45 -16 21 -9 215 -67 250 -74 11 -3 49 -11 85
-20 71 -16 107 -23 160 -32 19 -2 49 -8 65 -11 17 -3 41 -7 55 -9 42 -5 124
-16 144 -20 122 -23 587 -22 766 1 19 2 55 7 80 10 65 8 113 15 135 19 11 2
58 11 105 20 101 19 102 19 205 46 44 11 87 22 95 24 105 26 418 144 513 193
29 15 54 27 57 28 40 4 519 291 560 335 3 3 22 16 42 30 21 14 38 28 38 33 0
4 7 7 15 7 8 0 15 4 15 8 0 4 22 24 48 45 27 20 62 49 78 63 107 98 139 129
137 136 -2 4 3 7 10 5 6 -1 11 4 9 11 -1 8 1 11 6 8 10 -6 168 163 164 176 -1
5 2 7 6 4 5 -3 20 9 33 26 13 17 29 36 35 42 94 97 338 454 416 611 8 17 31
62 51 100 46 92 92 193 129 285 74 182 161 482 184 630 3 19 7 42 9 50 3 8 7
33 10 55 4 22 8 50 10 61 2 12 6 48 10 80 4 33 9 70 11 84 27 169 20 640 -12
835 -3 17 -5 37 -6 45 -2 49 -64 351 -93 455 -10 33 -20 70 -22 83 -3 12 -8
22 -12 22 -3 0 -7 10 -7 23 -4 68 -174 466 -273 642 -13 22 -37 65 -54 95 -58
104 -267 406 -297 430 -3 3 -13 14 -21 26 -33 50 -318 354 -330 354 -2 0 -35
29 -73 65 -38 35 -73 62 -78 59 -5 -3 -7 -1 -6 5 3 12 -16 28 -186 154 -57 42
-109 77 -115 77 -6 0 -11 4 -11 8 0 5 -10 14 -22 21 -13 6 -35 19 -50 29 -124
80 -353 200 -513 269 -158 69 -479 173 -605 197 -14 3 -36 8 -50 11 -14 3 -63
12 -110 20 -47 9 -95 17 -106 19 -11 2 -47 7 -79 11 -33 4 -73 9 -90 11 -103
12 -508 27 -518 18z"/>
</g>
</svg>
